<?xml version="1.0" encoding="utf-8"?>
<!-- Generator: Adobe Illustrator 25.4.2, SVG Export Plug-In . SVG Version: 6.00 Build 0)  -->
<svg version="1.1" id="Layer_1" xmlns="http://www.w3.org/2000/svg" xmlns:xlink="http://www.w3.org/1999/xlink" x="0px" y="0px"
	 viewBox="0 0 185.248 278.277" style="enable-background:new 0 0 185.248 278.277;" xml:space="preserve">
<style type="text/css">
	.st0{fill:#FFFFFF;}
</style>
<path class="st0" d="M177.609,198.255H7.639c-4.219,0-7.639-3.42-7.639-7.639s3.42-7.639,7.639-7.639h169.971
	c4.219,0,7.639,3.42,7.639,7.639S181.828,198.255,177.609,198.255z M185.248,160.12c0-4.219-3.42-7.639-7.639-7.639H7.639
	c-4.219,0-7.639,3.42-7.639,7.639s3.42,7.639,7.639,7.639h169.971C181.828,167.759,185.248,164.339,185.248,160.12z M105.226,7.639
	c0-4.219-3.42-7.639-7.639-7.639H7.639C3.42,0,0,3.42,0,7.639s3.42,7.639,7.639,7.639h89.948
	C101.806,15.278,105.226,11.858,105.226,7.639z M105.226,38.135c0-4.219-3.42-7.639-7.639-7.639H7.639
	C3.42,30.496,0,33.917,0,38.135s3.42,7.639,7.639,7.639h89.948C101.806,45.774,105.226,42.354,105.226,38.135z M105.226,68.631
	c0-4.219-3.42-7.639-7.639-7.639H7.639C3.42,60.992,0,64.413,0,68.631s3.42,7.639,7.639,7.639h89.948
	C101.806,76.271,105.226,72.85,105.226,68.631z M105.226,99.128c0-4.219-3.42-7.639-7.639-7.639H7.639
	C3.42,91.489,0,94.909,0,99.128s3.42,7.639,7.639,7.639h89.948C101.806,106.767,105.226,103.347,105.226,99.128z M105.226,129.624
	c0-4.219-3.42-7.639-7.639-7.639H7.639c-4.219,0-7.639,3.42-7.639,7.639s3.42,7.639,7.639,7.639h89.948
	C101.806,137.263,105.226,133.843,105.226,129.624z M31.691,269.57v8.705H1.839v-37.302h10.809v28.597H31.691z M67.533,249.573
	v-8.601H37.465v37.303h30.069v-8.601h-19.26v-5.933h18.733v-8.286H48.274v-5.882H67.533z M147.967,249.575v-8.602h-30.064v37.304
	h30.064v-8.601h-19.255v-5.934h18.733v-8.286h-18.733v-5.882H147.967z M165.499,269.57v-28.597H154.69v37.302h29.854v-8.705H165.499
	z M103.075,240.972l-9.408,27.643l-0.518,4.302h-0.864l-0.472-4.324l-9.454-27.621H70.946l13.482,37.303h16.577l13.483-37.303
	H103.075z"/>
</svg>
